<?xml version="1.0" encoding="utf-8"?>
<!-- Generator: Adobe Illustrator 16.0.0, SVG Export Plug-In . SVG Version: 6.00 Build 0)  -->
<!DOCTYPE svg PUBLIC "-//W3C//DTD SVG 1.1//EN" "http://www.w3.org/Graphics/SVG/1.1/DTD/svg11.dtd">
<svg version="1.1" id="Layer_1" xmlns="http://www.w3.org/2000/svg" xmlns:xlink="http://www.w3.org/1999/xlink" x="0px" y="0px"
	 width="128px" height="121.333px" viewBox="0 0 128 121.333" enable-background="new 0 0 128 121.333" xml:space="preserve">
<path fill-rule="evenodd" clip-rule="evenodd" fill="#F6CB03" d="M62.454,17.382c0,4.559,0,9.038,0,13.592c-0.277,0-0.517,0-0.757,0
	c-2.682,0.001-5.365-0.014-8.047,0.004c-3.939,0.026-7.383,2.374-8.833,5.985c-0.534,1.329-0.701,2.719-0.701,4.136
	c-0.003,13.657-0.002,27.314-0.002,40.973c0,0.287,0,0.574,0,0.963c-0.282-0.113-0.487-0.184-0.683-0.271
	c-6.969-3.178-11.226-8.498-12.627-16.043c-0.199-1.068-0.27-2.176-0.272-3.266c-0.021-8.337,0.012-16.675-0.019-25.013
	c-0.027-7.263,4.057-14.822,11.415-18.656c3.111-1.62,6.425-2.403,9.928-2.403c3.265-0.001,6.527,0,9.791,0
	C61.892,17.382,62.136,17.382,62.454,17.382z"/>
<path fill-rule="evenodd" clip-rule="evenodd" fill="#F6CB03" d="M58.118,84.456c0-4.322,0-8.559,0-12.879c0.291,0,0.553,0,0.813,0
	c5.389,0,10.775,0.033,16.164-0.01c3.775-0.031,6.637-1.729,8.504-5.023c0.773-1.363,1.131-2.857,1.131-4.432
	c0-0.486,0-0.972,0-1.496c4.299,0,8.533,0,12.771,0c0.027,0.084,0.064,0.146,0.068,0.207c0.072,2.867-0.059,5.711-0.887,8.492
	c-2.322,7.793-9.066,13.686-17.113,14.879c-1.059,0.156-2.135,0.246-3.205,0.25c-5.855,0.023-11.715,0.012-17.572,0.012
	C58.594,84.456,58.395,84.456,58.118,84.456z"/>
<path fill-rule="evenodd" clip-rule="evenodd" d="M97.58,46.531c-1.412,0-2.723,0-4.105,0c-0.02-0.4-0.041-0.789-0.063-1.216
	c-0.824,0-1.615,0-2.459,0c-0.018,0.391-0.035,0.763-0.053,1.126c-0.482,0.151-5.158,0.194-6.17,0.048c0-0.218,0-0.453,0-0.689
	c0-1.722-0.025-3.442,0.004-5.163c0.082-4.592-3.201-8.687-7.83-9.504c-0.611-0.108-1.244-0.148-1.867-0.151
	c-2.838-0.016-5.678-0.007-8.516-0.008c-0.262,0-0.523,0-0.816,0c0-4.561,0-9.04,0-13.592c0.271,0,0.512,0,0.75,0
	c3.332,0,6.662-0.004,9.992,0c9.631,0.011,18.219,6.77,20.498,16.126c0.426,1.745,0.627,3.516,0.633,5.309
	c0.008,2.302,0.002,4.604,0.002,6.906C97.58,45.965,97.58,46.208,97.58,46.531z"/>
<path fill-rule="evenodd" clip-rule="evenodd" d="M90.818,50.73c0-0.952,0-1.816,0-2.722c0.922,0,1.775,0,2.699,0
	c0,0.896,0,1.758,0,2.709c1.326,0,2.586,0,3.887,0c0,1.352,0,2.613,0,3.939c-0.549,0-1.074,0-1.684,0c0,1.498,0,2.937,0,4.419
	c-0.717,0-1.348,0-2.039,0c0-0.765,0-1.493,0-2.277c-0.213-0.015-0.371-0.024-0.582-0.039c0,0.79,0,1.521,0,2.336
	c-0.725,0.045-1.402,0.031-2.154,0.008c0-0.792,0-1.54,0-2.324c-0.219,0-0.363,0-0.582,0c0,0.762,0,1.511,0,2.299
	c-0.689,0-1.305,0-1.996,0c0-1.446,0-2.886,0-4.363c-3.959,0-7.84,0-11.748,0c-0.006,0.004-0.047,0.023-0.072,0.057
	c-0.221,0.297-0.389,0.769-0.674,0.856c-0.488,0.151-1.061,0.128-1.58,0.06c-0.484-0.065-0.547-0.524-0.553-0.979
	c-0.521,0-1.023,0-1.563,0c-0.059,0.565-0.084,1.118-0.178,1.661c-0.297,1.76-1.078,3.254-2.498,4.374
	c-0.926,0.728-1.982,1.103-3.164,1.108c-0.736,0.002-1.477-0.014-2.213,0.002c-2.028,0.043-3.565-0.857-4.717-2.47
	c-0.897-1.255-1.309-2.686-1.33-4.215c-0.028-1.944-0.029-3.89,0-5.833c0.024-1.602,0.47-3.088,1.445-4.379
	c1.018-1.348,2.333-2.208,4.062-2.289c0.958-0.044,1.921-0.062,2.882-0.018c2.191,0.102,3.701,1.285,4.738,3.14
	c0.67,1.197,0.928,2.502,0.922,3.866c0,0.329,0,0.659,0,1.031c0.553,0,1.037,0,1.563,0c0.168-0.608,0.637-0.76,1.232-0.702
	c0.221,0.021,0.455-0.033,0.668,0.016c0.205,0.047,0.48,0.133,0.563,0.288c0.221,0.416,0.545,0.447,0.947,0.446
	c4.336-0.009,8.672-0.006,13.006-0.006C90.322,50.73,90.539,50.73,90.818,50.73z M68.266,52.24c-0.016,0-0.031-0.001-0.047-0.002
	c0-0.514,0.016-1.027-0.002-1.541c-0.029-0.937-0.283-1.803-0.891-2.539c-0.48-0.581-1.086-0.914-1.854-0.92
	c-0.246-0.002-0.49,0-0.738,0c-0.74-0.001-1.334,0.313-1.813,0.861c-0.452,0.517-0.757,1.118-0.843,1.794
	c-0.202,1.576-0.234,3.165,0.008,4.735c0.268,1.738,1.391,2.633,3.142,2.624c0.066-0.001,0.135-0.003,0.201-0.001
	c0.803,0.029,1.418-0.329,1.912-0.928c0.408-0.491,0.693-1.055,0.766-1.686C68.197,53.844,68.217,53.04,68.266,52.24z"/>
<path fill-rule="evenodd" clip-rule="evenodd" fill="#FFFFFF" d="M103.553,103.755c-0.396,0-0.684,0-0.967,0
	c-0.141-0.484-0.17-6.475-0.031-7.246c0.184-0.012,0.379-0.016,0.574-0.039c0.373-0.043,0.609,0.104,0.826,0.422
	c1.002,1.477,2.029,2.936,3.051,4.4c0.123,0.176,0.256,0.342,0.514,0.48c0-1.744,0-3.488,0-5.266c0.383,0,0.686,0,1.031,0
	c0,2.414,0,4.791,0,7.219c-0.176,0.016-0.348,0.021-0.514,0.049c-0.457,0.072-0.725-0.133-0.979-0.508
	c-0.984-1.461-2.004-2.902-3.012-4.348c-0.121-0.174-0.256-0.34-0.494-0.473C103.553,100.192,103.553,101.94,103.553,103.755z"/>
<path fill-rule="evenodd" clip-rule="evenodd" fill="#FFFFFF" d="M52.446,103.929c-1.762,0.064-3.732-1.148-3.742-3.855
	c-0.008-2.229,1.635-3.822,3.82-3.803c2.175,0.018,3.791,1.672,3.743,3.881C56.213,102.683,54.369,104.015,52.446,103.929z
	 M52.497,97.312c-1.592-0.004-2.684,1.117-2.703,2.773c-0.02,1.635,1.081,2.83,2.649,2.838c1.406,0.008,2.689-0.832,2.747-2.818
	C55.237,98.476,54.075,97.317,52.497,97.312z"/>
<path fill-rule="evenodd" clip-rule="evenodd" fill="#FFFFFF" d="M95.199,103.929c-2.232-0.002-3.766-1.559-3.764-3.82
	c0.002-2.234,1.584-3.842,3.777-3.838c2.189,0.002,3.76,1.611,3.76,3.852C98.973,102.382,97.436,103.931,95.199,103.929z
	 M97.891,100.128c0.004-1.768-1.178-2.902-2.922-2.807c-1.313,0.074-2.307,1.057-2.436,2.408c-0.145,1.512,0.609,2.748,1.879,3.092
	c0.023,0.004,0.045,0.008,0.066,0.012C96.34,103.286,97.887,102.06,97.891,100.128z"/>
<path fill-rule="evenodd" clip-rule="evenodd" fill="#FFFFFF" d="M45.951,103.679c-0.107,0.051-0.144,0.082-0.182,0.084
	c-0.974,0.064-0.975,0.064-1.469-0.77c-0.387-0.652-0.771-1.309-1.159-1.961c-0.341-0.572-0.343-0.572-1.152-0.467
	c-0.053,1.021,0.003,2.063-0.034,3.152c-0.338,0-0.657,0-1.019,0c0-2.381,0-4.76,0-7.209c1.081-0.031,2.146-0.154,3.195,0.092
	c0.875,0.207,1.38,0.818,1.449,1.631c0.084,0.998-0.287,1.645-1.171,2.045c-0.118,0.053-0.235,0.105-0.398,0.18
	C44.671,101.552,45.309,102.612,45.951,103.679z M42.001,99.442c0.589,0,1.106,0.051,1.609-0.014c0.569-0.07,0.883-0.447,0.896-0.92
	c0.014-0.482-0.274-0.834-0.844-0.969c-0.543-0.129-1.093-0.088-1.662-0.029C42.001,98.175,42.001,98.788,42.001,99.442z"/>
<path fill-rule="evenodd" clip-rule="evenodd" fill="#FFFFFF" d="M4.974,99.829c1.294,1.318,2.52,2.57,3.863,3.941
	c-0.564,0-0.962,0.029-1.351-0.016c-0.174-0.02-0.355-0.166-0.49-0.299c-0.76-0.756-1.51-1.521-2.253-2.295
	c-0.167-0.174-0.292-0.391-0.436-0.588c-0.067,0.037-0.134,0.072-0.2,0.107c0,1.006,0,2.012,0,3.053c-0.393,0-0.697,0-1.004,0
	c-0.15-0.457-0.19-6.355-0.038-7.215c0.312,0,0.63,0,1.024,0c0,0.877,0,1.711,0,2.705c0.33-0.295,0.541-0.48,0.749-0.67
	c0.579-0.527,1.178-1.031,1.728-1.588c0.375-0.381,0.78-0.566,1.31-0.496c0.191,0.025,0.387,0.023,0.751,0.045
	c-0.695,0.631-1.281,1.16-1.866,1.691C6.184,98.729,5.605,99.255,4.974,99.829z"/>
<path fill-rule="evenodd" clip-rule="evenodd" fill="#FFFFFF" d="M80.232,97.437c-0.264,0.191-0.531,0.385-0.936,0.68
	c-0.078-0.141-0.129-0.305-0.234-0.408c-0.438-0.422-1.115-0.516-1.678-0.268c-0.383,0.172-0.596,0.457-0.625,0.875
	c-0.031,0.42,0.127,0.75,0.502,0.943c0.277,0.141,0.572,0.244,0.863,0.352c0.271,0.1,0.559,0.164,0.826,0.273
	c0.984,0.402,1.406,1.07,1.338,2.078c-0.061,0.895-0.656,1.607-1.568,1.873c-1.146,0.334-2.453-0.059-3.143-0.951
	c-0.053-0.068-0.086-0.152-0.152-0.27c0.303-0.205,0.594-0.402,0.91-0.617c0.145,0.17,0.262,0.328,0.398,0.467
	c0.504,0.514,1.387,0.609,1.975,0.221c0.701-0.461,0.676-1.334-0.061-1.729c-0.213-0.117-0.451-0.189-0.68-0.275
	c-0.355-0.131-0.723-0.236-1.066-0.391c-0.854-0.383-1.289-1.078-1.252-1.953c0.039-0.889,0.582-1.602,1.447-1.9
	C78.33,96.011,79.58,96.396,80.232,97.437z"/>
<path fill-rule="evenodd" clip-rule="evenodd" fill="#FFFFFF" d="M33.914,100.497c0,1.131,0,2.152,0,3.223c-0.366,0-0.685,0-1.047,0
	c0-2.385,0-4.764,0-7.211c1.075-0.029,2.143-0.17,3.186,0.102c0.942,0.246,1.46,1.01,1.423,1.943
	c-0.038,0.945-0.604,1.639-1.545,1.855c-0.279,0.064-0.575,0.072-0.863,0.084C34.713,100.507,34.357,100.497,33.914,100.497z
	 M33.938,99.472c0.528,0,0.993,0.027,1.455-0.008c0.555-0.043,0.874-0.326,0.957-0.768c0.102-0.539-0.138-0.943-0.688-1.125
	c-0.56-0.184-1.127-0.104-1.724-0.064C33.938,98.163,33.938,98.776,33.938,99.472z"/>
<path fill-rule="evenodd" clip-rule="evenodd" fill="#FFFFFF" d="M60.888,99.483c0.573,0,1.085,0,1.597,0c0.508,0,1.016,0,1.559,0
	c0,0.352,0,0.631,0,0.996c-1.047,0-2.084,0-3.186,0c0,1.117,0,2.156,0,3.242c-0.384,0-0.7,0-1.054,0c0-2.395,0-4.771,0-7.199
	c1.495,0,2.972,0,4.483,0c0,0.318,0,0.598,0,0.934c-1.14,0-2.246,0-3.399,0C60.888,98.146,60.888,98.774,60.888,99.483z"/>
<path fill-rule="evenodd" clip-rule="evenodd" fill="#FFFFFF" d="M86.41,103.753c-0.406,0-0.691,0-1.059,0
	c-0.012-0.248-0.027-0.484-0.031-0.719c-0.016-0.803,0.137-1.656-0.084-2.396s-0.813-1.371-1.244-2.049
	c-0.418-0.656-0.838-1.311-1.332-2.08c0.443-0.01,0.787-0.061,1.117-0.008c0.154,0.027,0.311,0.232,0.414,0.391
	c0.455,0.688,0.891,1.391,1.336,2.086c0.096,0.148,0.201,0.291,0.354,0.516c0.266-0.402,0.506-0.764,0.742-1.125
	c0.295-0.447,0.615-0.881,0.873-1.348c0.232-0.428,0.539-0.625,1.021-0.551c0.15,0.023,0.299,0.031,0.521,0.051
	c-0.135,0.236-0.234,0.428-0.352,0.609c-0.65,1.014-1.297,2.033-1.965,3.035c-0.221,0.332-0.33,0.664-0.32,1.064
	C86.426,102.05,86.41,102.872,86.41,103.753z"/>
<path fill-rule="evenodd" clip-rule="evenodd" fill="#FFFFFF" d="M18.638,96.542c0.05-0.021,0.069-0.035,0.09-0.041
	c0.708-0.15,1.215,0.027,1.576,0.73c0.396,0.77,0.92,1.473,1.435,2.275c0.367-0.557,0.695-1.051,1.021-1.545
	c0.184-0.279,0.366-0.561,0.549-0.842c0.489-0.75,0.568-0.779,1.576-0.545c-0.117,0.197-0.223,0.387-0.34,0.57
	c-0.628,0.977-1.246,1.961-1.895,2.924c-0.26,0.389-0.398,0.775-0.374,1.248c0.031,0.604,0.011,1.207,0.006,1.811
	c-0.002,0.195-0.026,0.389-0.043,0.611c-0.346,0-0.651,0-1.042,0c-0.006-0.42-0.06-0.84-0.01-1.248
	c0.155-1.287-0.187-2.395-0.989-3.418c-0.576-0.734-1.025-1.568-1.529-2.359C18.647,96.681,18.652,96.63,18.638,96.542z"/>
<path fill-rule="evenodd" clip-rule="evenodd" fill="#FFFFFF" d="M120.855,96.511c0.322,0,0.625,0,1.006,0c0,2.063,0,4.102,0,6.213
	c1.092,0,2.107,0,3.17,0c0,0.371,0,0.668,0,1.008c-1.387,0-2.756,0-4.176,0C120.855,101.335,120.855,98.942,120.855,96.511z"/>
<path fill-rule="evenodd" clip-rule="evenodd" fill="#FFFFFF" d="M112.564,103.726c-0.01-0.143-0.025-0.25-0.029-0.357
	c-0.004-0.178,0-0.355,0-0.52c0.512-0.141,3.771-0.178,4.746-0.057c0,0.287,0,0.586,0,0.934
	C115.746,103.726,114.193,103.726,112.564,103.726z"/>
<path fill-rule="evenodd" clip-rule="evenodd" fill="#FFFFFF" d="M16.182,102.796c0,0.316,0,0.604,0,0.932c-1.568,0-3.121,0-4.729,0
	c0-0.291,0-0.59,0-0.889C11.929,102.706,15.186,102.671,16.182,102.796z"/>
<path fill-rule="evenodd" clip-rule="evenodd" fill="#FFFFFF" d="M72.428,102.769c0,0.357,0,0.641,0,0.965c-1.578,0-3.131,0-4.707,0
	c0-0.332,0-0.631,0-0.965C69.289,102.769,70.82,102.769,72.428,102.769z"/>
<path fill-rule="evenodd" clip-rule="evenodd" fill="#FFFFFF" d="M15.801,99.542c0,0.316,0,0.598,0,0.916c-1.46,0-2.879,0-4.35,0
	c0-0.305,0-0.582,0-0.865C11.896,99.458,14.729,99.417,15.801,99.542z"/>
<path fill-rule="evenodd" clip-rule="evenodd" fill="#FFFFFF" d="M67.711,100.435c0-0.311,0-0.592,0-0.914c1.447,0,2.867,0,4.332,0
	c0,0.299,0,0.58,0,0.859C71.578,100.524,68.822,100.565,67.711,100.435z"/>
<path fill-rule="evenodd" clip-rule="evenodd" fill="#FFFFFF" d="M112.594,99.521c1.463,0,2.879,0,4.324,0c0,0.32,0,0.602,0,0.93
	c-1.436,0-2.85,0-4.324,0C112.594,100.155,112.594,99.862,112.594,99.521z"/>
<path fill-rule="evenodd" clip-rule="evenodd" fill="#FFFFFF" d="M16.04,96.56c0,0.299,0,0.561,0,0.865c-1.527,0-3.031,0-4.589,0
	c0-0.266,0-0.541,0-0.824C11.889,96.44,15.178,96.401,16.04,96.56z"/>
<path fill-rule="evenodd" clip-rule="evenodd" fill="#FFFFFF" d="M117.139,97.437c-1.555,0-3.041,0-4.566,0c0-0.309,0-0.586,0-0.914
	c1.525,0,3.025,0,4.566,0C117.139,96.831,117.139,97.108,117.139,97.437z"/>
<path fill-rule="evenodd" clip-rule="evenodd" fill="#FFFFFF" d="M72.264,96.515c0,0.334,0,0.598,0,0.908c-1.518,0-3.02,0-4.549,0
	c0-0.309,0-0.588,0-0.908C69.23,96.515,70.715,96.515,72.264,96.515z"/>
</svg>
